<!--?xml version="1.0" standalone="no"?-->              <svg id="sw-js-blob-svg" viewBox="0 0 100 100" xmlns="http://www.w3.org/2000/svg">                    <defs>                         <linearGradient id="sw-gradient" x1="0" x2="1" y1="1" y2="0">                            <stop id="stop1" stop-color="rgba(0, 198, 76, 1)" offset="0%"></stop>                            <stop id="stop2" stop-color="rgba(251, 168, 31, 1)" offset="100%"></stop>                        </linearGradient>                    </defs>                <path fill="url(#sw-gradient)" d="M24.3,-30.2C29.7,-24.4,31.1,-15.1,31.4,-6.6C31.6,1.9,30.6,9.5,27.8,17.7C25,25.9,20.4,34.6,12.7,39.4C4.9,44.3,-5.9,45.1,-15.6,42C-25.4,38.9,-34,31.8,-36.1,23.2C-38.2,14.7,-33.7,4.8,-29.8,-3.2C-26,-11.2,-22.8,-17.2,-17.9,-23.1C-13,-28.9,-6.5,-34.5,1.5,-36.3C9.5,-38,18.9,-35.9,24.3,-30.2Z" width="100%" height="100%" transform="translate(50 50)" stroke-width="0" style="transition: all 0.3s ease 0s;"></path>              </svg>